<svg width="258" height="595" viewBox="0 0 258 595" fill="none" xmlns="http://www.w3.org/2000/svg">
<path d="M46.8109 358.989C36.7384 374.271 38.0655 388.711 40.3197 406.458C40.7584 409.129 41.857 410.498 41.8422 409.608C41.8285 409.197 41.3269 408.343 40.7923 407.908C40.2691 407.457 39.9693 407.485 40.3874 407.758C42.004 408.85 47.9275 409.566 52.3736 409.716C57.1168 409.9 61.686 409.836 66.4267 409.455C75.921 408.63 86.3586 406.638 103.525 398.849C137.642 383.165 173.91 369.347 188.411 359.501C195.259 354.751 200.318 353.712 205.912 352.73C208.725 352.24 211.723 351.727 215.531 350.739C217.496 350.231 219.296 349.729 221.943 348.957C222.56 348.781 223.179 348.607 223.805 348.438C224.404 348.275 225.4 348.011 226.225 347.827C227.126 347.628 227.847 347.471 229.059 347.314C230.526 347.156 232.139 347.006 234.487 347.523C236.08 347.876 237.733 348.443 239.327 349.243C254.118 359.002 252.894 370.246 252.753 379.232L251.697 382.926C246.099 394.375 240.443 403.942 233.169 415.897C221.669 433.888 195.373 493.984 192.019 517.725C189.396 533.141 183.341 548.858 178.597 562.51C176.07 569.852 173.488 576.205 172.1 581.551C170.814 586.406 169.757 590.283 168.804 593.245C168.403 594.501 167.815 595.044 167.298 594.989C167.298 594.989 167.297 594.989 167.297 594.989C166.657 594.908 166.124 593.923 166.246 592.232C166.631 584.714 168.016 573.375 168.911 560.44C168.973 559.417 169.034 558.383 169.096 557.332C171.178 529.92 176.505 528.233 185.925 493.053C195.949 458.041 200.062 435.82 220.42 397.967C225.565 388.522 229.092 380.652 231.993 373.295L230.935 376.996C230.869 374.392 229.992 371.445 228.879 369.934C228.346 369.177 227.751 368.825 227.615 369.083C227.434 369.316 228.059 370.157 228.771 370.554C231.45 371.225 231.843 370.939 231.721 371.12C231.666 371.224 231.153 371.43 230.57 371.694C229.624 372.144 227.799 372.953 226.376 373.655C222.987 375.26 219.236 377.102 215.145 379C206.677 382.932 196.282 387.405 182.81 392.198C124.806 411.63 128.105 428.87 64.206 447.847C54.1757 449.689 43.2589 452.202 27.18 447.42C19.2851 445.065 9.24302 437.842 4.90126 428.539C0.368601 419.196 0.233803 411.332 0.699583 404.151C1.72204 371.607 19.9502 340.571 34.7848 321.563C43.4239 310.208 50.9338 300.244 56.3943 292.3C76.8628 262.438 104.528 222.386 136.673 182.654C143.755 173.849 151.125 164.282 158.029 154.609C180.788 124.937 206.35 102.863 220.775 75.3443C222.135 72.9585 222.94 70.1242 223.082 68.4195C223.125 68.0181 223.129 67.7152 223.163 67.66C223.209 67.6097 223.242 67.8055 223.682 68.5776C224.125 69.2893 225.103 70.9309 227.727 72.3998C230.339 73.931 234.015 74.0059 235.629 73.4757C235.525 73.4891 235.418 73.5036 235.309 73.5194C192.227 86.0956 125.457 150.059 80.6075 145.238C55.0826 142.53 47.5836 126.355 41.6298 114.86C37.3974 105.676 33.708 95.6047 30.267 80.4886C25.4972 60.0081 25.5359 31.3517 28.8552 7.70223C30.4955 -4.23986 32.7792 -1.51212 33.8964 10.47C35.5159 27.966 34.9614 42.3242 38.4699 51.0075C45.7352 68.2197 48.1191 74.9018 50.6821 95.8565C51.452 100.965 52.9695 105.143 54.8272 108.537C60.7951 119.059 68.2509 119.806 72.6463 122.448C76.016 124.111 77.5412 126.226 85.3363 126.436C93.1359 126.441 108.32 122.896 134.927 103.528C174.249 75.035 196.569 51.1244 228.34 41.2708C232.162 40.301 237.675 40.3851 242.32 42.5003C246.994 44.559 250.061 47.8206 251.939 50.5353C255.625 56.1013 256.292 60.259 256.86 63.9443C257.723 71.1928 256.769 76.7231 255.432 81.812C254.577 84.9433 253.34 88.1904 251.628 91.4844C239.713 117.708 203.061 148.137 183.917 173.207C181.897 176.101 179.953 178.876 178.024 181.666C153.819 216.136 102.275 282.889 84.6369 312.154C74.5891 328.526 68.9737 334.819 62.6992 340.957C58.1307 345.39 53.1079 349.764 46.8109 358.989Z" fill="#0087FF"/>
</svg>
