<svg width="181" height="144" viewBox="0 0 181 144" fill="none" xmlns="http://www.w3.org/2000/svg">
<path d="M85.1105 27.3162C83.3718 21.641 79.2882 19.3507 74.2718 16.4962C73.56 16.1596 73.0906 16.3008 73.6154 16.5682C73.8692 16.6908 74.3756 16.7457 74.7625 16.6601C75.1467 16.5836 75.3399 16.4251 75.2665 16.4114C74.9197 16.3758 73.4999 17.6438 72.5595 18.6722C71.5386 19.7705 70.5903 20.9013 69.6907 22.1478C67.9038 24.659 66.2279 27.6846 64.7651 33.6371C61.9098 45.5081 57.8087 57.5234 57.5095 63.27C57.3949 66.009 56.5609 67.5031 55.5928 69.128C55.1072 69.9368 54.5832 70.8142 54.0304 71.9921C53.7434 72.6058 53.4949 73.1684 53.1398 74.026C53.0559 74.2248 52.971 74.4245 52.8834 74.6261C52.8022 74.8138 52.6598 75.1385 52.5333 75.3996C52.3942 75.6846 52.2803 75.9166 52.0608 76.282C51.7821 76.7219 51.4671 77.2115 50.7766 77.773C50.3502 78.1199 49.8582 78.4397 49.3177 78.7C46.4536 79.9967 44.0615 79.3202 42.4032 78.7066C40.6979 78.0221 39.396 77.1277 38.2149 75.9856L37.3644 74.7918C35.5958 71.0504 34.363 67.6444 32.8849 63.3279C30.7695 56.6711 20.8956 37.658 15.3785 32.0743C11.8846 28.335 9.19156 23.5468 6.75342 19.4996C5.43063 17.3246 4.38081 15.3459 3.32193 13.8919C2.36471 12.5637 1.61338 11.4841 1.0746 10.6157C0.845548 10.248 0.846702 9.96688 0.98589 9.82622C0.985982 9.82613 0.986073 9.82604 0.986165 9.82595C1.16223 9.6541 1.54658 9.69432 1.95708 10.0669C3.81052 11.6794 6.47344 14.324 9.66918 17.1085C9.92674 17.3294 10.1875 17.5522 10.4526 17.7787C17.2272 23.7649 16.3634 25.6268 23.5342 35.1428C30.5403 44.7811 35.5979 50.2581 40.9805 63.2579C42.3039 66.5026 43.5991 68.9946 44.9115 71.2155L44.0602 70.0206C44.6807 70.4559 45.5733 70.7713 46.0751 70.7252C46.321 70.7104 46.4543 70.5948 46.2973 70.4992C46.158 70.3956 45.6487 70.4188 45.2721 70.6061C44.4098 71.2629 44.3602 71.5074 44.3176 71.4614C44.2783 71.458 44.3139 71.3091 44.3533 71.1219C44.4094 70.8142 44.5589 70.2021 44.6588 69.7041C44.9165 68.5317 45.1976 67.2073 45.5432 65.7814C46.2577 62.8297 47.2638 59.2682 48.8763 54.8591C56.1167 36.1383 50.3066 33.4312 58.5373 12.8807C60.1483 9.8665 61.7308 6.4583 66.5493 3.08453C68.9138 1.43028 73.1809 0.211634 76.7477 1.0695C80.3653 1.88125 82.5377 3.57702 84.3668 5.2441C92.5979 12.2921 96.8622 23.6104 98.6381 31.3242C99.7451 35.857 100.738 39.8132 101.662 42.8259C105.145 54.1335 109.812 69.3499 113.313 85.6737C114.096 89.2752 115.033 93.108 116.091 96.8158C119.079 108.899 119.563 119.749 123.539 128.843C123.813 129.558 124.301 130.236 124.557 130.505C124.642 130.643 124.77 130.608 123.997 130.456C123.611 130.405 122.816 130.308 121.694 130.768C120.556 131.209 119.617 132.334 119.363 132.999C119.381 132.972 119.399 132.944 119.417 132.915C124.992 119.99 122.533 89.5296 133.127 78.9449C139.212 72.8622 144.981 74.324 149.165 75.1497C152.388 75.9444 155.728 77.041 160.315 79.2101C166.57 82.1305 173.874 88.027 179.125 93.8266C181.786 96.7468 180.546 96.8716 177.222 94.7651C172.373 91.6874 168.857 88.5797 165.843 87.8414C159.809 86.4613 157.595 85.8434 151.89 82.112C150.478 81.2434 149.134 80.7811 147.918 80.5818C144.072 80.0151 142.584 82.0215 141.233 82.4572C140.244 82.8848 139.405 82.7301 137.798 84.5551C136.24 86.4219 134.059 90.9163 133.679 101.607C133.062 117.425 134.761 127.904 130.687 138.48C130.096 139.788 128.812 141.357 127.139 142.214C125.475 143.092 123.835 143.231 122.635 143.154C120.212 142.946 118.913 142.206 117.769 141.557C115.581 140.21 114.295 138.763 113.204 137.311C112.537 136.403 111.923 135.367 111.401 134.193C107.058 125.645 106.879 109.836 104.401 100.102C104.07 98.9942 103.755 97.9336 103.43 96.8744C99.4859 83.6728 93.028 56.9279 89.0357 46.5047C86.8384 40.6281 86.4315 37.9005 86.2298 35.0247C86.1027 32.9598 86.1008 30.7815 85.1105 27.3162Z" fill="#0087FF"/>
</svg>
